# xmcd CD database file
#
# Track frame offsets:
#	150
#	26080
#	56207
#	83372
#	108107
#	136073
#	163680
#	193375
#	215728
#	251940
#	281115
#
# Disc length: 4141 seconds
#
# Revision: 2
# Processed by: cddbd v1.5.2PL0 Copyright (c) Steve Scherf et al.
# Submitted via: CDex 1.51
#
DISCID=a4102b0b
DTITLE=Haruhiko Nishioka - City of Illusion
DYEAR=2007
DGENRE=Jazz
TTITLE0=City of Illusion
TTITLE1=Midnight Silence
TTITLE2=Moon Shade
TTITLE3=Tailwind
TTITLE4=Fixing Solution
TTITLE5=One Day (in the Afternoon)
TTITLE6=The Spank
TTITLE7=Cartoon
TTITLE8=View of the Factorize
TTITLE9=In Vain
TTITLE10=Reflex
EXTD=YEAR: 2007
EXTT0=
EXTT1=
EXTT2=
EXTT3=
EXTT4=
EXTT5=
EXTT6=
EXTT7=
EXTT8=
EXTT9=
EXTT10=
PLAYORDER=
